<?xml version="1.0" encoding="UTF-8"?>
<!DOCTYPE svg PUBLIC "-//W3C//DTD SVG 1.1//EN" "http://www.w3.org/Graphics/SVG/1.1/DTD/svg11.dtd">
<!-- Creator: CorelDRAW 2018 (64-Bit) -->
<svg xmlns="http://www.w3.org/2000/svg" xml:space="preserve" width="530px" height="184px" version="1.1" style="shape-rendering:geometricPrecision; text-rendering:geometricPrecision; image-rendering:optimizeQuality; fill-rule:evenodd; clip-rule:evenodd"
viewBox="0 0 13897 4830"
 xmlns:xlink="http://www.w3.org/1999/xlink">
 <defs>
  <style type="text/css">
   <![CDATA[
    .fil0 {fill:black;fill-rule:nonzero}
    .fil1 {fill:url(#id0)}
   ]]>
  </style>
  <linearGradient id="id0" gradientUnits="userSpaceOnUse" x1="-31" y1="2416" x2="4210" y2="2416">
   <stop offset="0" style="stop-opacity:1; stop-color:#D62631"/>
   <stop offset="0.25098" style="stop-opacity:1; stop-color:#863C61"/>
   <stop offset="0.501961" style="stop-opacity:1; stop-color:#23659D"/>
   <stop offset="0.74902" style="stop-opacity:1; stop-color:#689563"/>
   <stop offset="1" style="stop-opacity:1; stop-color:#ACC42A"/>
  </linearGradient>
 </defs>
 <g id="Layer_x0020_1">
  <metadata id="CorelCorpID_0Corel-Layer"/>
  <path class="fil0" d="M6064 1779c-171,-176 -370,-197 -476,-197 -373,0 -540,248 -540,495 0,171 78,265 134,313 85,75 191,116 280,146 96,33 196,65 259,123 46,43 66,91 66,152 0,141 -111,232 -260,232 -118,0 -272,-61 -353,-225l-214 205c88,128 270,317 580,317 348,0 585,-224 585,-552 0,-171 -68,-285 -144,-353 -85,-78 -209,-124 -340,-169 -106,-38 -162,-58 -202,-96 -40,-35 -53,-73 -53,-113 0,-86 56,-197 232,-197 61,0 177,13 275,144l171 -225z"/>
  <path id="1" class="fil0" d="M6687 1620l0 1683 328 0 0 -623 212 0c194,0 333,-56 426,-149 129,-129 139,-310 139,-376 0,-121 -35,-285 -172,-406 -123,-109 -254,-129 -444,-129l-489 0zm328 283l114 0c78,0 164,5 232,53 48,35 93,98 93,191 0,74 -30,149 -91,197 -70,53 -151,53 -214,53l-134 0 0 -494z"/>
  <polygon id="2" class="fil0" points="8309,1620 8309,3303 8637,3303 8637,1620 "/>
  <polygon id="3" class="fil0" points="9295,1620 9295,3303 9622,3303 9622,1620 "/>
  <path id="4" class="fil0" d="M10280 1620l0 1683 328 0 0 -676 41 0 449 676 408 0 -524 -709c80,-15 141,-43 184,-73 131,-89 196,-232 196,-396 0,-126 -37,-270 -166,-379 -78,-65 -197,-126 -429,-126l-487 0zm328 268l99 0c60,0 317,2 317,252 0,247 -259,255 -322,255l-94 0 0 -507z"/>
  <polygon id="5" class="fil0" points="12003,1620 12003,3303 12331,3303 12331,1620 "/>
  <polygon id="6" class="fil0" points="13897,1903 13897,1620 12812,1620 12812,1903 13190,1903 13190,3303 13518,3303 13518,1903 "/>
  <path class="fil1" d="M3137 604l209 120 209 121 210 121 209 121 209 120 0 242 0 241 0 242 0 241 0 242 0 241 -209 -121 0 -241 0 -241 0 -242 0 -241 0 -242 -209 -121 -210 -120 -209 -121 -209 -121 -209 -121 -209 -120 -209 -121 -209 -121 -209 -121 0 242 209 121 209 120 209 121 209 121 0 241 0 242 -209 -121 -209 -121 -209 -120 -209 -121 -210 121 -209 120 -209 121 -209 121 -209 121 -209 120 0 242 0 241 209 121 209 121 209 121 209 120 209 121 210 121 209 -121 209 -121 209 121 209 121 -209 121 -209 121 -209 120 -209 121 -210 -121 -209 -120 -209 -121 -209 -121 -209 -121 -209 -121 -210 -120 -209 -121 0 -242 0 -241 0 -242 0 -241 209 -121 210 -121 209 -120 209 -121 209 -121 209 -121 209 -120 0 -242 0 -241 210 -121 209 121 209 120 209 121 209 121 209 121zm-1045 845l209 121 209 120 209 121 209 121 209 121 210 120 209 121 209 121 0 241 0 242 0 241 209 121 209 121 0 241 -209 121 -209 121 -209 121 -209 120 -210 121 -209 121 -209 121 -209 120 -209 121 -209 121 -209 -121 -209 -121 -210 -120 -209 -121 -209 -121 -209 -121 209 -120 209 120 209 121 210 121 209 121 209 120 209 -120 209 -121 209 -121 209 -121 209 -120 210 -121 209 -121 209 -121 209 -120 -209 -121 -209 121 -209 121 -210 120 -209 121 -209 121 -209 121 -209 120 -209 121 -210 -121 -209 -120 -209 -121 -209 -121 0 -241 0 -242 209 121 209 121 209 120 210 121 209 -121 209 -120 209 -121 209 -121 209 -121 210 -120 0 -242 0 -242 -210 -120 -209 -121 -209 -121 -209 -121 -209 -120 -209 -121 -210 121 -209 120 -209 -120 -209 -121 209 -121 209 -121 209 -120 210 -121zm-1465 1570l210 121 0 241 0 242 -210 -121 -209 121 -209 120 -209 -121 0 -241 0 -241 0 -242 0 -241 0 -242 0 -241 0 -242 0 -241 0 -242 0 -241 209 -121 209 -121 209 -120 210 -121 209 -121 209 -121 0 242 -209 121 -209 120 -210 121 -209 121 -209 121 0 241 0 241 0 242 0 241 0 242 0 241 0 242 0 241 0 242 209 -121 0 -241 0 -242 209 121zm1046 -2777l0 241 -209 121 0 -241 209 -121zm418 1932l210 120 0 242 -209 120 -210 -120 0 -242 209 -120zm-1463 1569l209 121 -209 121 -209 -121 209 -121zm3346 -966l209 121 0 241 -209 -121 0 -241zm-627 -1570l418 242 0 241 0 242 -418 -242 0 -483z"/>
 </g>
</svg>
